# xmcd
#
# Track frame offsets: 
#        150
#        14638
#        29762
#        44026
#        66148
#        79497
#        90288
#        104574
#        120703
#        137246
#        160047
#        178309
#        192206
#
# Disc length: 3482 seconds
#
# Revision: 1
# Processed by: cddbd v1.5.2PL0 Copyright (c) Steve Scherf et al.
# Submitted via: ExactAudioCopy v0.99pb5
#
DISCID=bd0d980d
DTITLE=Juke Joint Blues Band - Der Plan Woa Guat
DYEAR=2004
DGENRE=Blues
TTITLE0=I Steh Jetzt Auf
TTITLE1=So Vü Zum Liagn
TTITLE2=JoJoJo
TTITLE3=Wahdidi Blues
TTITLE4=Du Muasst As Festhoitn
TTITLE5=Soises
TTITLE6=Pensonistenswing
TTITLE7=Endstation
TTITLE8=Sie Foat Min Cabrio
TTITLE9=Der Einsame Reiter Reitet Einsam
TTITLE10=Donau
TTITLE11=Waunst So Gehst
TTITLE12=So Daham
EXTD=
EXTT0=
EXTT1=
EXTT2=
EXTT3=
EXTT4=
EXTT5=
EXTT6=
EXTT7=
EXTT8=
EXTT9=
EXTT10=
EXTT11=
EXTT12=
PLAYORDER=
